<?xml version="1.0" standalone="no"?>
<!DOCTYPE svg PUBLIC "-//W3C//DTD SVG 20010904//EN"
 "http://www.w3.org/TR/2001/REC-SVG-20010904/DTD/svg10.dtd">
<svg version="1.0" xmlns="http://www.w3.org/2000/svg"
 width="4367.000000pt" height="4367.000000pt" viewBox="0 0 4367.000000 4367.000000"
 preserveAspectRatio="xMidYMid meet">
<metadata>
Created by potrace 1.14, written by Peter Selinger 2001-2017
</metadata>
<g transform="translate(0.000000,4367.000000) scale(0.100000,-0.100000)"
fill="#000000" stroke="none">
<path d="M21808 39095 c-2 -3 -108 -36 -234 -74 -126 -38 -371 -113 -544 -166
-173 -53 -389 -119 -480 -146 -91 -27 -176 -54 -190 -60 -14 -5 -34 -11 -45
-13 -11 -3 -117 -35 -235 -71 -118 -37 -219 -68 -225 -69 -14 -3 -134 -40
-305 -93 -162 -50 -297 -92 -320 -98 -8 -2 -141 -43 -295 -90 -154 -48 -296
-91 -315 -97 -19 -5 -93 -28 -164 -50 -72 -22 -135 -41 -140 -42 -6 -2 -42
-13 -81 -25 -66 -22 -92 -29 -212 -65 -60 -17 -426 -130 -513 -157 -36 -12
-78 -25 -95 -29 -16 -5 -59 -17 -95 -28 -36 -11 -146 -45 -245 -75 -99 -30
-373 -114 -610 -187 -236 -72 -531 -162 -655 -200 -124 -38 -315 -96 -425
-130 -110 -34 -220 -68 -245 -75 -25 -7 -99 -30 -165 -50 -66 -21 -124 -38
-130 -39 -5 -1 -15 -5 -21 -8 -6 -4 -21 -9 -35 -11 -13 -3 -51 -14 -84 -25
-33 -11 -94 -30 -135 -42 -41 -12 -97 -29 -125 -38 -27 -9 -54 -17 -60 -18 -5
-1 -32 -9 -60 -18 -27 -8 -111 -34 -185 -56 -74 -23 -245 -75 -380 -117 -135
-41 -261 -80 -280 -85 -19 -5 -55 -16 -80 -25 -25 -8 -52 -16 -60 -19 -8 -2
-51 -14 -95 -28 -135 -41 -329 -101 -575 -175 -129 -40 -293 -90 -365 -112
-135 -42 -188 -58 -342 -105 l-93 -28 0 -2468 c0 -1357 2 -2468 4 -2468 3 0
17 5 33 11 15 6 37 13 48 15 20 4 54 14 345 105 91 28 179 55 195 59 17 5 91
27 165 50 74 23 185 57 245 75 127 38 457 139 625 191 63 20 131 40 150 46 19
5 42 12 50 15 8 3 20 7 25 8 6 2 87 26 180 55 94 29 175 53 180 55 6 1 17 5
25 8 8 3 92 29 185 57 94 28 242 74 330 101 88 27 168 51 177 53 9 3 68 20
130 40 62 19 167 51 233 71 66 20 131 40 145 45 31 10 141 43 155 46 6 2 98
30 205 64 107 33 204 63 215 65 11 3 40 12 65 20 25 8 122 38 215 66 94 28
204 61 245 74 41 14 129 41 195 60 66 20 165 50 220 67 55 16 107 32 115 35 8
4 20 7 25 9 10 2 437 133 605 185 52 17 102 32 110 34 19 4 396 119 1280 390
173 54 335 103 360 110 25 7 106 32 180 55 227 70 264 81 295 90 27 7 322 97
450 138 28 8 55 16 60 18 13 2 115 34 135 41 8 4 20 7 25 8 6 2 145 44 310 95
165 51 320 98 345 105 44 13 115 35 475 145 94 29 179 55 191 57 11 3 117 -25
235 -62 118 -36 222 -68 233 -70 10 -2 53 -15 95 -29 42 -13 114 -35 161 -49
47 -15 234 -72 415 -128 182 -55 335 -102 340 -103 6 -1 42 -12 80 -24 253
-79 593 -183 609 -187 10 -2 71 -20 135 -40 64 -20 136 -42 161 -50 25 -7 209
-64 410 -125 201 -61 453 -138 560 -171 107 -33 238 -73 290 -89 52 -16 205
-63 340 -104 135 -41 387 -118 560 -171 173 -53 342 -104 375 -114 84 -26 182
-56 820 -251 308 -94 670 -205 805 -246 135 -42 346 -106 470 -144 465 -142
889 -271 985 -301 94 -29 575 -176 630 -192 72 -22 532 -162 650 -199 334
-103 610 -186 614 -183 2 3 4 4869 2 4921 -1 6 -25 19 -53 27 -234 73 -646
198 -658 201 -14 4 -305 92 -600 183 -63 20 -128 39 -145 44 -16 4 -50 15 -75
23 -51 17 -250 78 -265 82 -5 1 -122 36 -260 78 -291 89 -336 103 -750 230
-170 52 -413 127 -540 166 -126 39 -237 72 -246 75 -9 2 -75 21 -145 43 -71
22 -176 55 -234 72 -58 17 -163 50 -235 72 -71 22 -134 41 -140 43 -5 1 -17 5
-25 8 -8 3 -211 65 -450 137 -239 72 -446 135 -460 140 -14 5 -70 22 -125 39
-134 41 -1146 350 -1515 463 -162 49 -302 92 -310 93 -8 2 -16 4 -17 5 -2 2
-6 3 -10 5 -5 1 -15 4 -23 8 -17 6 -504 154 -570 172 -45 13 -335 102 -570
175 -69 21 -179 55 -245 75 -66 20 -178 55 -250 77 -71 22 -136 41 -145 43 -8
2 -82 24 -165 50 -82 25 -208 64 -280 86 -71 22 -150 47 -175 55 -123 39 -278
84 -287 84 -5 0 -12 -2 -15 -5z"/>
<path d="M20780 32309 c-52 -17 -115 -36 -140 -43 -25 -8 -99 -30 -165 -51
-66 -20 -176 -54 -245 -75 -69 -20 -201 -61 -295 -90 -93 -29 -197 -60 -230
-70 -78 -23 -521 -158 -700 -214 -152 -48 -282 -86 -290 -87 -2 0 -24 -7 -47
-15 -24 -9 -47 -17 -53 -18 -13 -3 -146 -43 -221 -67 -33 -11 -69 -21 -80 -24
-10 -2 -100 -30 -199 -61 -215 -67 -300 -93 -340 -104 -16 -4 -127 -38 -245
-75 -118 -36 -267 -82 -330 -101 -63 -19 -164 -50 -225 -69 -60 -18 -132 -40
-160 -49 -27 -8 -111 -33 -185 -56 -74 -23 -155 -48 -180 -55 -25 -7 -139 -42
-255 -78 -115 -36 -226 -69 -245 -75 -33 -9 -309 -94 -545 -167 -60 -19 -297
-91 -525 -160 -228 -69 -471 -144 -540 -165 -69 -21 -237 -73 -375 -115 -137
-42 -270 -83 -295 -90 -25 -8 -106 -33 -180 -56 -74 -22 -171 -52 -215 -65
-44 -14 -84 -26 -90 -28 -5 -1 -37 -11 -70 -21 -33 -10 -64 -19 -70 -21 -5 -1
-71 -21 -145 -44 -74 -23 -139 -43 -145 -45 -5 -1 -17 -5 -25 -8 -8 -3 -82
-26 -165 -50 -82 -25 -217 -66 -300 -92 -82 -26 -154 -48 -160 -49 -5 -1 -50
-15 -100 -30 -430 -132 -942 -289 -955 -292 -17 -4 -424 -128 -585 -179 -120
-37 -307 -94 -425 -130 -80 -24 -238 -72 -950 -291 -245 -75 -465 -142 -490
-149 -61 -17 -1060 -323 -1230 -377 -36 -11 -72 -22 -80 -23 -12 -3 -130 -39
-398 -121 -7 -2 -14 -4 -17 -4 -3 0 -24 -8 -47 -16 -24 -9 -50 -17 -58 -19 -8
-2 -127 -38 -265 -80 -137 -42 -295 -90 -350 -106 -55 -17 -107 -33 -115 -36
-8 -3 -19 -7 -25 -8 -5 -2 -41 -12 -80 -25 -61 -19 -257 -79 -460 -140 -33
-10 -143 -44 -245 -75 -102 -31 -192 -59 -200 -61 -8 -2 -168 -51 -355 -109
-187 -57 -349 -107 -360 -109 -11 -3 -42 -12 -70 -21 -79 -26 -209 -66 -225
-70 -8 -2 -26 -8 -40 -13 -14 -5 -28 -10 -32 -11 -4 -1 -13 -3 -20 -5 -7 -2
-47 -14 -88 -26 -41 -12 -81 -24 -88 -26 -7 -2 -11 -8 -8 -12 3 -5 7 -19 10
-33 2 -13 21 -80 40 -149 20 -69 45 -159 57 -200 11 -41 24 -86 29 -100 4 -14
15 -52 24 -85 8 -33 26 -94 38 -135 12 -41 23 -79 24 -85 7 -33 46 -170 49
-175 2 -4 6 -17 9 -31 2 -13 32 -121 66 -239 34 -118 63 -222 65 -230 2 -8 29
-105 60 -215 55 -197 74 -263 214 -765 39 -140 78 -277 86 -305 8 -27 37 -131
65 -230 28 -99 59 -211 71 -250 11 -38 25 -88 31 -110 6 -22 15 -53 20 -70 12
-41 122 -438 154 -555 14 -52 32 -113 39 -135 7 -22 41 -141 75 -265 34 -124
70 -254 81 -290 10 -36 37 -130 59 -210 22 -80 54 -194 71 -255 17 -60 39
-139 50 -175 19 -66 77 -273 194 -690 36 -129 70 -251 75 -270 6 -19 30 -104
54 -188 23 -83 45 -154 47 -157 3 -2 57 12 120 31 63 20 135 42 162 50 103 30
148 44 292 89 83 25 157 48 165 50 8 2 51 15 95 29 136 43 249 78 265 81 8 2
43 13 78 24 53 17 105 33 157 47 6 2 237 73 515 159 278 85 512 157 520 159 9
2 150 45 315 96 165 51 307 94 315 96 8 2 119 35 245 74 127 39 275 85 330
101 55 17 111 35 125 40 14 5 34 11 45 13 20 5 306 92 790 242 132 41 247 76
256 78 17 5 59 17 244 74 72 22 204 63 295 91 91 27 336 102 545 166 209 64
452 138 540 165 88 27 219 67 290 89 72 22 207 63 300 91 94 28 262 80 375
115 113 35 228 70 255 78 85 26 317 97 370 113 28 9 55 17 60 18 9 2 65 19
195 61 25 8 119 37 210 64 91 27 262 79 380 116 118 36 222 68 230 70 8 2 170
51 360 110 190 59 388 119 440 135 106 31 336 102 725 222 143 44 283 87 310
95 91 27 867 264 1015 310 80 25 165 51 190 58 47 13 200 60 475 146 88 27
167 51 175 53 28 7 614 186 740 226 69 21 305 94 525 160 220 67 427 131 460
141 33 11 67 22 76 24 25 5 221 65 249 76 14 5 34 11 45 14 24 5 284 84 305
92 8 4 17 7 20 7 3 1 26 8 53 15 l47 14 0 3588 c0 1974 -3 3589 -7 3588 -5 0
-51 -14 -103 -30z"/>
<path d="M22772 28755 l0 -3586 22 -10 c11 -5 140 -45 286 -90 146 -44 339
-103 430 -131 91 -28 203 -61 250 -75 47 -13 94 -28 105 -33 11 -5 54 -19 95
-30 41 -12 86 -25 100 -30 14 -5 205 -64 425 -130 220 -67 459 -140 530 -162
72 -22 135 -41 140 -42 6 -2 55 -17 110 -34 142 -45 742 -229 855 -262 52 -15
160 -48 240 -73 80 -25 273 -84 430 -132 157 -48 337 -103 400 -122 63 -19
120 -36 125 -38 6 -1 17 -5 25 -8 8 -3 83 -26 165 -51 83 -24 231 -70 330
-101 99 -30 187 -57 195 -59 8 -2 22 -6 30 -9 8 -3 67 -21 130 -41 63 -19 243
-74 400 -121 157 -48 402 -123 545 -167 143 -43 305 -93 360 -110 55 -16 134
-41 175 -53 41 -13 208 -64 370 -114 162 -49 430 -131 595 -181 165 -50 356
-109 425 -130 69 -21 215 -66 325 -100 110 -34 216 -67 235 -72 19 -5 202 -61
405 -123 928 -285 1103 -338 1145 -350 25 -7 162 -49 305 -93 265 -82 630
-194 855 -262 69 -21 206 -63 305 -93 338 -104 1270 -389 1330 -407 95 -29
140 -43 675 -207 278 -85 519 -159 535 -163 17 -5 59 -17 95 -28 36 -11 184
-57 330 -102 305 -94 463 -141 465 -137 1 2 43 154 51 187 2 8 24 87 49 175
56 195 140 493 167 595 10 41 22 78 24 82 3 4 7 17 9 27 2 11 36 134 75 273
39 139 73 262 76 273 2 11 13 49 24 85 11 36 24 81 30 100 39 144 85 306 102
365 11 39 22 77 24 85 1 8 19 71 39 140 19 69 37 133 40 143 2 10 7 27 10 37
3 10 8 27 10 37 2 10 45 162 95 338 120 421 200 706 204 725 5 17 179 639 201
715 8 28 31 109 51 180 19 72 44 159 55 195 11 36 21 74 24 85 2 11 15 58 28
105 14 47 53 184 87 305 33 121 70 249 80 285 30 104 111 391 125 445 14 54
107 385 149 530 14 49 24 91 21 93 -3 4 -1078 335 -1125 347 -15 4 -394 120
-440 135 -34 11 -333 101 -345 105 -5 1 -17 5 -25 8 -17 7 -148 47 -170 52 -8
2 -141 42 -295 90 -154 47 -323 99 -375 115 -52 16 -259 79 -460 141 -201 61
-414 126 -475 145 -60 19 -117 36 -126 39 -9 2 -75 21 -145 43 -71 22 -176 55
-234 72 -58 17 -163 50 -234 72 -70 22 -136 41 -145 44 -9 2 -88 26 -176 53
-88 27 -243 75 -345 106 -102 30 -196 60 -210 65 -14 5 -146 45 -295 90 -241
73 -384 117 -770 235 -60 18 -326 100 -590 180 -264 81 -536 164 -605 185
-100 31 -649 199 -895 273 -27 9 -86 27 -130 40 -191 60 -422 130 -450 137
-16 5 -140 43 -275 85 -135 42 -254 79 -265 82 -11 3 -83 25 -160 48 -77 24
-268 82 -425 130 -157 47 -319 97 -360 110 -41 13 -181 56 -310 95 -129 39
-284 87 -345 105 -60 19 -227 70 -370 114 -143 43 -417 127 -610 186 -422 128
-533 162 -690 211 -66 21 -124 39 -130 40 -5 1 -152 46 -325 99 -173 53 -457
139 -630 191 -173 53 -324 99 -335 104 -11 4 -132 42 -270 84 -137 41 -369
112 -515 156 -513 157 -725 222 -755 230 -16 5 -118 36 -225 69 -107 33 -307
94 -445 136 -137 42 -293 90 -345 106 -118 37 -248 76 -276 84 l-22 6 0 -3586z"/>
<path d="M20785 23599 c-111 -36 -934 -289 -955 -294 -9 -1 -121 -35 -250 -75
-129 -40 -239 -73 -245 -74 -5 -2 -32 -10 -60 -18 -95 -30 -650 -200 -660
-202 -5 -2 -23 -8 -38 -14 -16 -7 -33 -12 -38 -12 -5 0 -98 -27 -207 -61 -342
-106 -589 -181 -687 -209 -22 -6 -60 -19 -85 -27 -25 -8 -58 -19 -75 -23 -16
-5 -68 -20 -115 -35 -47 -14 -89 -28 -95 -29 -5 -1 -44 -13 -85 -26 -41 -13
-79 -24 -85 -26 -5 -1 -93 -28 -195 -59 -102 -32 -189 -58 -195 -59 -13 -3
-179 -54 -230 -71 -22 -8 -96 -30 -165 -50 -69 -20 -136 -41 -150 -46 -25 -9
-516 -159 -580 -177 -19 -6 -125 -38 -235 -72 -203 -63 -258 -80 -330 -100
-22 -6 -47 -13 -55 -16 -8 -3 -17 -6 -20 -6 -3 -1 -36 -12 -75 -25 -38 -13
-70 -23 -70 -22 0 1 -58 -16 -130 -39 -71 -22 -206 -63 -300 -92 -93 -28 -219
-66 -280 -85 -60 -18 -245 -75 -410 -125 -165 -50 -356 -109 -425 -130 -69
-21 -195 -60 -280 -86 -85 -25 -227 -69 -315 -96 -88 -27 -167 -51 -175 -53
-8 -2 -76 -22 -150 -45 -74 -24 -139 -43 -145 -45 -5 -1 -17 -5 -25 -8 -18 -7
-221 -69 -235 -71 -5 -1 -57 -17 -115 -35 -58 -18 -112 -35 -120 -37 -8 -2
-67 -20 -130 -39 -116 -37 -318 -98 -355 -108 -11 -3 -72 -22 -135 -42 -63
-20 -119 -38 -125 -39 -5 -2 -37 -11 -70 -21 -33 -10 -64 -20 -70 -21 -5 -2
-98 -30 -205 -63 -107 -32 -305 -93 -440 -134 -324 -99 -586 -179 -745 -229
-71 -22 -173 -52 -225 -68 -52 -15 -149 -45 -215 -65 -66 -20 -127 -38 -135
-40 -8 -2 -42 -12 -75 -23 -33 -11 -94 -30 -135 -42 -41 -13 -115 -36 -164
-51 -49 -16 -95 -29 -102 -29 -8 0 -22 -4 -32 -9 -16 -9 -184 -61 -207 -65 -5
-1 -23 -6 -40 -12 -16 -6 -46 -16 -65 -22 -19 -6 -80 -24 -135 -41 -55 -16
-210 -64 -345 -105 -434 -132 -842 -256 -960 -293 -63 -19 -119 -36 -125 -38
-5 -1 -17 -5 -25 -8 -8 -3 -55 -18 -105 -32 -49 -15 -92 -29 -94 -31 -2 -2 20
-36 49 -76 61 -84 193 -264 230 -313 14 -18 34 -45 45 -60 16 -23 333 -452
393 -533 9 -13 40 -53 67 -91 28 -37 84 -113 125 -170 41 -57 80 -109 85 -115
6 -6 63 -83 127 -171 124 -169 383 -521 583 -791 66 -89 165 -223 220 -298
122 -166 291 -395 308 -416 7 -9 28 -38 46 -65 19 -28 38 -52 41 -55 6 -5 260
-350 295 -400 11 -16 114 -156 229 -312 115 -156 257 -348 315 -426 58 -79
169 -229 246 -333 77 -104 185 -250 240 -325 55 -75 134 -182 175 -237 42 -56
158 -214 259 -352 334 -453 376 -510 388 -525 7 -8 98 -132 203 -275 105 -143
200 -271 210 -285 10 -14 57 -77 104 -141 l86 -117 63 20 c34 11 82 26 107 33
97 28 709 216 890 272 47 15 85 25 85 23 0 -2 9 2 21 8 11 6 32 13 45 16 20 4
407 123 724 222 50 15 92 28 95 29 10 2 159 47 270 82 63 20 120 38 125 39 6
1 33 9 60 18 49 15 181 55 400 121 61 18 130 40 155 48 58 20 222 70 236 73 7
1 65 18 130 39 66 20 171 52 234 72 216 66 265 81 370 114 58 18 110 34 115
35 6 1 42 12 80 24 39 12 90 28 115 35 25 7 171 52 325 100 154 47 294 90 310
95 75 22 386 116 595 181 52 17 100 31 105 33 6 1 51 15 100 30 50 15 178 54
285 87 349 107 424 130 505 156 44 14 85 26 90 27 6 1 26 7 45 13 19 6 80 25
135 42 55 16 190 58 300 91 345 106 430 132 445 136 24 6 443 134 460 141 8 3
20 7 25 8 6 2 71 21 145 44 74 23 142 44 150 46 8 2 103 31 210 64 107 33 278
85 380 116 102 31 241 74 310 95 69 21 172 53 231 71 l105 32 0 4213 c0 2318
-3 4214 -6 4213 -3 0 -45 -14 -95 -30z"/>
<path d="M22772 19415 l1 -4212 101 -31 c55 -16 162 -49 236 -72 74 -22 178
-54 230 -70 261 -80 1119 -343 1145 -352 17 -5 39 -11 49 -13 11 -3 54 -15 95
-29 87 -28 62 -20 541 -166 201 -61 475 -145 610 -187 135 -41 252 -77 260
-79 8 -2 152 -46 320 -98 168 -51 321 -98 340 -104 19 -5 132 -40 250 -77 118
-37 231 -71 250 -77 33 -9 188 -56 255 -77 57 -19 1020 -313 1065 -326 25 -8
75 -23 113 -34 37 -12 95 -30 130 -40 34 -10 172 -53 307 -94 135 -42 520
-159 855 -262 677 -207 737 -225 1045 -321 118 -36 231 -71 250 -76 19 -5 98
-29 175 -53 181 -56 313 -96 620 -190 138 -42 269 -82 292 -90 l42 -13 86 116
c47 64 95 128 105 142 10 14 47 63 81 110 213 290 267 362 405 550 39 52 117
158 174 235 56 77 120 163 140 190 20 28 83 113 140 190 102 139 175 237 280
379 30 40 62 83 70 96 13 19 38 53 113 154 12 16 38 50 57 75 20 25 43 57 52
71 9 14 54 75 98 135 45 61 88 119 96 130 8 11 58 79 112 151 53 71 151 204
217 293 66 90 154 209 195 265 41 55 124 169 185 251 60 83 113 155 118 160
12 15 90 119 109 146 9 13 105 143 212 289 108 146 202 274 210 285 8 11 46
61 83 112 37 50 75 101 83 113 8 12 52 72 98 133 158 212 271 365 432 585 74
101 210 286 302 410 93 125 176 238 185 251 21 29 149 201 161 216 4 6 70 96
146 200 77 105 149 202 160 216 12 14 28 36 36 49 8 12 41 56 72 98 32 43 58
80 58 83 0 4 -17 11 -37 17 -36 9 -187 56 -548 166 -82 26 -170 53 -195 61
-25 7 -180 55 -345 105 -165 50 -349 106 -410 125 -103 32 -199 61 -845 258
-269 83 -390 119 -405 123 -16 4 -1217 372 -1680 515 -110 34 -207 63 -215 64
-8 2 -15 4 -15 5 0 1 -7 3 -15 5 -13 3 -528 160 -720 220 -41 12 -115 35 -165
50 -49 15 -133 40 -185 57 -52 16 -102 32 -110 34 -23 6 -128 37 -325 97 -99
31 -220 68 -270 82 -49 15 -99 31 -110 35 -11 5 -83 27 -160 50 -147 44 -999
304 -1530 467 -170 52 -317 96 -325 98 -8 2 -109 33 -225 69 -115 35 -262 80
-325 100 -63 19 -198 60 -300 91 -102 31 -192 59 -200 61 -8 2 -73 22 -145 44
-71 23 -137 43 -145 45 -8 2 -127 38 -265 80 -137 42 -308 94 -380 116 -71 22
-150 46 -175 54 -25 8 -128 39 -230 70 -102 31 -212 65 -245 75 -53 17 -571
175 -700 213 -110 33 -583 178 -625 191 -62 21 -312 97 -330 101 -8 2 -49 14
-90 28 -64 20 -153 48 -170 52 -8 2 -141 43 -415 127 -143 44 -264 81 -270 82
-5 1 -48 14 -95 28 -139 44 -601 185 -657 201 l-51 15 0 -4213z"/>
<path d="M20859 13656 c-2 -2 -103 -34 -224 -71 -121 -37 -256 -78 -300 -91
-44 -14 -100 -31 -125 -38 -120 -36 -294 -89 -370 -113 -47 -15 -85 -26 -85
-24 0 1 -13 -3 -30 -9 -16 -7 -50 -18 -75 -25 -25 -7 -157 -48 -295 -90 -137
-42 -317 -97 -400 -122 -82 -24 -161 -48 -175 -53 -14 -4 -144 -44 -290 -89
-146 -44 -323 -98 -395 -120 -622 -190 -992 -303 -1005 -306 -13 -3 -199 -60
-625 -191 -44 -14 -84 -26 -90 -27 -5 -2 -44 -13 -85 -26 -41 -13 -124 -38
-185 -56 -60 -19 -200 -62 -310 -95 -110 -34 -281 -86 -380 -116 -99 -30 -216
-66 -260 -80 -44 -13 -87 -26 -95 -28 -8 -3 -150 -46 -315 -96 -165 -51 -304
-93 -310 -94 -5 -1 -14 -4 -20 -7 -9 -5 -49 -17 -80 -24 -5 -2 -226 -68 -490
-149 -264 -81 -518 -158 -565 -172 -47 -14 -96 -30 -110 -34 -14 -5 -72 -23
-130 -41 l-105 -31 135 -40 c74 -22 144 -43 155 -48 11 -5 81 -26 155 -48 269
-80 415 -124 435 -133 11 -4 36 -12 55 -17 19 -5 132 -39 250 -75 442 -135
1239 -379 1345 -412 205 -64 280 -87 310 -95 17 -4 66 -19 110 -33 87 -27 384
-118 480 -147 33 -10 150 -46 260 -80 110 -34 214 -65 230 -70 17 -4 156 -47
310 -94 154 -48 386 -118 515 -157 129 -39 242 -74 250 -77 8 -3 17 -6 20 -7
3 -1 12 -4 20 -7 8 -3 76 -24 150 -46 128 -38 541 -164 1120 -342 146 -45 339
-104 430 -131 91 -28 215 -66 275 -84 61 -19 281 -87 490 -150 209 -64 390
-120 403 -125 13 -6 29 -10 37 -10 13 0 15 311 15 2425 0 2453 0 2451 -31
2421z"/>
<path d="M22772 11235 l1 -2425 21 4 c11 2 44 11 71 20 28 8 111 34 185 57 74
22 194 59 265 81 146 45 253 77 275 82 8 2 35 11 60 19 49 17 189 59 205 63 6
1 69 20 140 42 72 23 272 84 445 137 173 53 353 108 400 123 47 14 87 27 90
27 9 2 150 45 330 101 96 30 182 57 190 59 16 3 187 56 325 98 44 14 127 40
185 57 58 17 148 45 200 62 52 16 102 31 110 33 8 3 60 18 115 36 55 17 114
35 130 39 17 4 68 20 115 35 47 15 105 33 130 40 53 15 215 65 425 130 83 26
157 48 165 50 8 2 83 24 165 50 83 25 202 62 265 82 63 19 142 44 175 55 33
10 69 21 79 23 11 3 47 13 80 24 59 19 131 40 381 116 66 20 183 56 260 80 77
24 187 57 245 75 58 17 139 42 180 55 123 38 299 92 395 120 50 15 104 32 120
38 17 6 35 12 40 13 6 1 123 36 260 79 196 60 571 173 698 211 20 6 23 24 3
24 -7 0 -56 14 -107 30 -52 17 -101 33 -109 35 -8 2 -98 29 -200 60 -102 31
-228 70 -280 85 -52 16 -266 81 -475 145 -209 63 -425 130 -480 146 -55 17
-156 48 -225 69 -69 21 -489 150 -935 285 -1072 327 -1172 357 -1365 416 -91
28 -172 52 -180 54 -8 2 -170 52 -360 110 -495 153 -601 185 -635 195 -16 4
-61 18 -100 30 -38 12 -113 34 -165 50 -52 16 -183 55 -290 88 -458 140 -866
265 -1170 357 -96 29 -251 77 -345 105 -93 29 -186 57 -205 62 -19 5 -44 13
-55 17 -16 7 -156 49 -227 67 -15 4 -16 -166 -16 -2421z"/>
<path d="M28 11239 c4 -4 68 -25 142 -47 74 -22 322 -97 550 -167 228 -70 496
-152 595 -182 99 -30 239 -73 310 -95 240 -73 389 -119 550 -168 146 -44 507
-155 970 -296 99 -31 231 -71 293 -90 170 -52 307 -94 652 -199 173 -53 396
-121 495 -151 99 -31 261 -80 360 -111 99 -30 200 -61 225 -68 25 -7 104 -31
175 -53 134 -42 363 -112 673 -206 97 -30 312 -96 477 -146 165 -51 314 -96
330 -101 17 -4 149 -45 295 -89 146 -45 321 -99 390 -120 69 -21 274 -84 455
-140 182 -56 357 -110 390 -119 33 -10 67 -20 75 -24 8 -3 98 -30 200 -61 102
-30 282 -85 400 -121 118 -37 231 -71 250 -77 19 -5 145 -44 280 -85 135 -42
250 -76 255 -78 6 -1 51 -14 100 -30 50 -16 95 -30 100 -31 9 -2 598 -182 715
-219 45 -14 76 -24 520 -159 624 -190 854 -260 970 -296 275 -85 365 -112 379
-116 9 -2 88 -26 176 -53 88 -27 295 -91 460 -141 165 -50 327 -99 360 -110
33 -11 114 -36 180 -55 66 -20 176 -54 245 -75 229 -71 525 -162 560 -172 34
-10 345 -105 705 -215 99 -30 185 -56 190 -57 6 -1 42 -13 80 -25 39 -12 77
-24 85 -26 8 -2 58 -17 110 -33 52 -17 246 -76 430 -132 184 -56 346 -105 360
-110 14 -5 129 -41 255 -79 381 -115 1012 -308 1205 -367 197 -61 226 -70 600
-184 585 -179 1076 -329 1195 -365 61 -19 162 -50 225 -69 63 -19 176 -53 250
-76 74 -23 140 -43 145 -44 6 -1 55 -16 110 -34 123 -39 307 -95 320 -98 6 -1
129 -39 275 -84 580 -178 696 -212 715 -212 11 0 88 21 170 47 83 26 177 55
210 65 51 15 453 138 920 282 72 22 146 44 165 50 33 9 110 33 405 124 66 21
125 39 130 40 6 1 62 18 125 37 193 60 513 158 550 169 37 10 168 50 410 124
80 25 190 59 245 75 55 17 134 41 175 54 229 71 1032 317 1045 320 6 1 17 4
25 7 8 3 56 18 105 32 50 15 252 77 450 138 198 60 446 136 550 168 105 32
258 79 340 104 83 26 157 48 165 50 8 2 164 50 345 106 182 56 337 103 345
105 14 3 217 66 395 122 44 14 94 28 110 33 17 4 95 28 175 53 228 70 294 91
305 93 8 2 497 151 1260 386 72 21 160 48 196 58 37 11 78 24 90 29 13 5 80
26 149 46 69 20 143 42 165 49 22 8 78 25 125 40 243 73 328 99 355 108 17 5
37 11 45 13 8 2 89 27 180 55 91 28 260 80 375 115 116 35 388 118 605 185
217 67 400 122 405 124 6 1 30 9 55 16 25 8 47 14 50 15 3 1 46 14 95 29 50
15 142 43 205 63 63 19 174 53 245 75 72 22 180 55 240 73 61 19 200 62 310
96 110 34 220 67 245 74 48 14 256 77 410 125 52 16 192 58 310 95 118 36 260
80 315 97 55 17 105 32 110 34 9 2 77 22 380 116 72 22 139 42 150 45 11 3 27
7 35 10 8 2 15 4 15 3 0 0 27 9 60 20 33 12 69 23 80 26 11 2 92 27 180 54 88
28 167 52 176 54 15 4 144 43 364 111 430 133 521 160 605 185 52 15 185 56
295 90 110 33 238 72 285 86 47 14 119 37 160 51 41 13 82 26 91 28 9 2 76 22
150 45 74 23 150 46 169 52 19 5 100 30 180 55 80 25 161 49 180 55 19 5 98
29 175 53 77 24 217 67 310 95 94 29 206 63 250 77 109 33 174 53 210 63 17 5
127 38 245 75 118 37 231 71 250 77 19 5 78 23 130 40 52 16 100 31 105 32 6
1 51 15 100 30 50 15 135 41 190 58 55 17 134 41 175 54 41 12 129 39 195 59
66 20 131 40 145 45 14 4 63 19 110 33 121 36 320 97 350 107 14 5 70 22 125
39 380 114 706 214 736 226 20 8 40 11 44 7 5 -4 6 -2 3 3 -4 7 -1593 10
-4750 10 l-4743 -1 -120 -38 c-162 -51 -256 -79 -345 -106 -41 -12 -109 -34
-150 -47 -41 -13 -83 -26 -92 -28 -10 -2 -84 -25 -165 -50 -81 -26 -156 -48
-165 -50 -18 -4 -261 -79 -308 -95 -14 -5 -52 -16 -85 -25 -33 -9 -73 -22 -90
-28 -16 -6 -34 -12 -40 -13 -5 -1 -122 -37 -260 -79 -311 -95 -661 -202 -740
-226 -33 -10 -118 -36 -190 -58 -71 -22 -344 -105 -605 -186 -261 -80 -484
-148 -494 -150 -11 -3 -76 -22 -145 -44 -69 -22 -139 -43 -156 -47 -16 -4 -36
-11 -42 -17 -7 -5 -13 -7 -13 -5 0 3 -71 -17 -157 -44 -87 -27 -201 -62 -253
-77 -52 -16 -171 -52 -265 -81 -93 -29 -228 -70 -300 -92 -71 -22 -188 -58
-260 -80 -71 -22 -173 -53 -225 -68 -128 -38 -561 -170 -580 -176 -8 -3 -17
-6 -20 -6 -3 0 -16 -5 -30 -10 -14 -5 -32 -11 -40 -13 -8 -2 -31 -9 -50 -15
-19 -7 -48 -15 -65 -20 -16 -4 -68 -20 -115 -35 -47 -15 -134 -42 -195 -60
-60 -18 -193 -59 -295 -90 -102 -32 -189 -58 -195 -59 -5 -1 -64 -19 -130 -40
-66 -20 -169 -52 -230 -71 -60 -18 -164 -50 -230 -70 -66 -20 -147 -45 -180
-55 -33 -10 -127 -40 -210 -65 -82 -26 -163 -51 -180 -55 -16 -4 -120 -36
-230 -70 -110 -34 -216 -66 -235 -71 -19 -6 -62 -19 -96 -30 -33 -11 -69 -21
-80 -24 -10 -2 -71 -21 -134 -40 -120 -38 -259 -80 -470 -145 -69 -21 -179
-55 -245 -75 -66 -20 -127 -39 -135 -41 -8 -1 -73 -21 -145 -44 -71 -23 -168
-52 -215 -66 -47 -14 -137 -41 -200 -61 -63 -20 -119 -38 -125 -39 -5 -2 -19
-5 -30 -8 -11 -3 -121 -37 -245 -75 -124 -38 -389 -119 -590 -181 -201 -61
-421 -128 -490 -150 -69 -21 -150 -46 -181 -56 l-56 -17 -174 52 c-96 28 -183
56 -194 60 -11 5 -51 18 -90 29 -77 22 -359 107 -500 151 -49 15 -130 40 -180
55 -87 27 -138 42 -455 140 -80 24 -273 84 -430 131 -157 48 -409 125 -560
172 -280 86 -393 120 -420 127 -8 2 -134 41 -280 86 -146 44 -310 95 -365 112
-55 16 -134 41 -175 53 -241 75 -313 97 -324 100 -6 1 -18 5 -26 8 -8 3 -82
26 -165 51 -197 58 -617 186 -775 236 -69 21 -253 78 -410 125 -402 122 -513
156 -530 162 -8 3 -19 7 -25 8 -5 2 -71 21 -145 44 -74 23 -142 44 -150 46 -8
3 -46 14 -85 26 -38 12 -97 29 -130 39 -33 10 -289 89 -570 175 -280 86 -517
158 -525 160 -8 2 -60 18 -115 35 -55 18 -143 44 -195 60 -89 26 -485 148
-740 226 -63 20 -146 45 -185 56 -38 11 -79 24 -90 29 -11 4 -54 18 -95 30
-41 12 -138 41 -215 64 -77 24 -304 94 -505 155 -201 61 -416 127 -479 147
-63 19 -122 37 -130 39 -9 2 -178 53 -376 114 -396 122 -591 182 -885 272
-459 140 -528 161 -575 176 -45 14 -489 16 -4797 16 -2611 1 -4744 -2 -4740
-5z"/>
</g>
</svg>
